<mxfile host="app.diagrams.net" modified="2023-10-17T05:15:11.365Z" agent="Mozilla/5.0 (Windows NT 10.0; Win64; x64; rv:109.0) Gecko/20100101 Firefox/118.0" etag="Fy0_0wc4wujw-TBUvVkq" version="22.0.4" type="github">
  <diagram id="C5RBs43oDa-KdzZeNtuy" name="Page-1">
    <mxGraphModel dx="880" dy="1594" grid="1" gridSize="10" guides="1" tooltips="1" connect="1" arrows="1" fold="1" page="1" pageScale="1" pageWidth="827" pageHeight="1169" math="0" shadow="0">
      <root>
        <mxCell id="WIyWlLk6GJQsqaUBKTNV-0" />
        <mxCell id="WIyWlLk6GJQsqaUBKTNV-1" parent="WIyWlLk6GJQsqaUBKTNV-0" />
        <mxCell id="_i_EQpy-jOgHrqnV__N8-4" style="edgeStyle=orthogonalEdgeStyle;rounded=0;orthogonalLoop=1;jettySize=auto;html=1;exitX=0.5;exitY=1;exitDx=0;exitDy=0;" edge="1" parent="WIyWlLk6GJQsqaUBKTNV-1">
          <mxGeometry relative="1" as="geometry">
            <mxPoint x="350" y="70" as="sourcePoint" />
            <mxPoint x="350" y="70" as="targetPoint" />
          </mxGeometry>
        </mxCell>
        <mxCell id="_i_EQpy-jOgHrqnV__N8-10" value="" style="edgeStyle=orthogonalEdgeStyle;rounded=0;orthogonalLoop=1;jettySize=auto;html=1;" edge="1" parent="WIyWlLk6GJQsqaUBKTNV-1" source="_i_EQpy-jOgHrqnV__N8-7" target="_i_EQpy-jOgHrqnV__N8-9">
          <mxGeometry relative="1" as="geometry" />
        </mxCell>
        <mxCell id="_i_EQpy-jOgHrqnV__N8-18" value="" style="edgeStyle=orthogonalEdgeStyle;rounded=0;orthogonalLoop=1;jettySize=auto;html=1;" edge="1" parent="WIyWlLk6GJQsqaUBKTNV-1" source="_i_EQpy-jOgHrqnV__N8-7" target="_i_EQpy-jOgHrqnV__N8-17">
          <mxGeometry relative="1" as="geometry" />
        </mxCell>
        <mxCell id="_i_EQpy-jOgHrqnV__N8-7" value="BILANGAN" style="shape=parallelogram;perimeter=parallelogramPerimeter;whiteSpace=wrap;html=1;fixedSize=1;rounded=1;" vertex="1" parent="WIyWlLk6GJQsqaUBKTNV-1">
          <mxGeometry x="277" y="30" width="120" height="40" as="geometry" />
        </mxCell>
        <mxCell id="_i_EQpy-jOgHrqnV__N8-12" value="" style="edgeStyle=orthogonalEdgeStyle;rounded=0;orthogonalLoop=1;jettySize=auto;html=1;" edge="1" parent="WIyWlLk6GJQsqaUBKTNV-1" source="_i_EQpy-jOgHrqnV__N8-9" target="_i_EQpy-jOgHrqnV__N8-11">
          <mxGeometry relative="1" as="geometry" />
        </mxCell>
        <mxCell id="_i_EQpy-jOgHrqnV__N8-14" value="" style="edgeStyle=orthogonalEdgeStyle;rounded=0;orthogonalLoop=1;jettySize=auto;html=1;" edge="1" parent="WIyWlLk6GJQsqaUBKTNV-1" source="_i_EQpy-jOgHrqnV__N8-9" target="_i_EQpy-jOgHrqnV__N8-13">
          <mxGeometry relative="1" as="geometry" />
        </mxCell>
        <mxCell id="_i_EQpy-jOgHrqnV__N8-9" value="BIL MOD 2-0" style="rhombus;whiteSpace=wrap;html=1;rounded=1;" vertex="1" parent="WIyWlLk6GJQsqaUBKTNV-1">
          <mxGeometry x="282" y="90" width="110" height="80" as="geometry" />
        </mxCell>
        <mxCell id="_i_EQpy-jOgHrqnV__N8-19" style="edgeStyle=orthogonalEdgeStyle;rounded=0;orthogonalLoop=1;jettySize=auto;html=1;exitX=0.5;exitY=1;exitDx=0;exitDy=0;entryX=1;entryY=0.5;entryDx=0;entryDy=0;" edge="1" parent="WIyWlLk6GJQsqaUBKTNV-1" source="_i_EQpy-jOgHrqnV__N8-11" target="_i_EQpy-jOgHrqnV__N8-15">
          <mxGeometry relative="1" as="geometry" />
        </mxCell>
        <mxCell id="_i_EQpy-jOgHrqnV__N8-11" value="GENAP" style="rounded=1;whiteSpace=wrap;html=1;" vertex="1" parent="WIyWlLk6GJQsqaUBKTNV-1">
          <mxGeometry x="430" y="180" width="93" height="20" as="geometry" />
        </mxCell>
        <mxCell id="_i_EQpy-jOgHrqnV__N8-16" value="" style="edgeStyle=orthogonalEdgeStyle;rounded=0;orthogonalLoop=1;jettySize=auto;html=1;" edge="1" parent="WIyWlLk6GJQsqaUBKTNV-1" source="_i_EQpy-jOgHrqnV__N8-13" target="_i_EQpy-jOgHrqnV__N8-15">
          <mxGeometry relative="1" as="geometry" />
        </mxCell>
        <mxCell id="_i_EQpy-jOgHrqnV__N8-13" value="GAJIL" style="shape=parallelogram;perimeter=parallelogramPerimeter;whiteSpace=wrap;html=1;fixedSize=1;rounded=1;" vertex="1" parent="WIyWlLk6GJQsqaUBKTNV-1">
          <mxGeometry x="277" y="200" width="120" height="30" as="geometry" />
        </mxCell>
        <mxCell id="_i_EQpy-jOgHrqnV__N8-15" value="END" style="shape=hexagon;perimeter=hexagonPerimeter2;whiteSpace=wrap;html=1;fixedSize=1;rounded=1;" vertex="1" parent="WIyWlLk6GJQsqaUBKTNV-1">
          <mxGeometry x="277" y="270" width="120" height="35" as="geometry" />
        </mxCell>
        <mxCell id="_i_EQpy-jOgHrqnV__N8-17" value="START" style="shape=hexagon;perimeter=hexagonPerimeter2;whiteSpace=wrap;html=1;fixedSize=1;rounded=1;" vertex="1" parent="WIyWlLk6GJQsqaUBKTNV-1">
          <mxGeometry x="277" y="-30" width="120" height="30" as="geometry" />
        </mxCell>
      </root>
    </mxGraphModel>
  </diagram>
</mxfile>
